<svg width="85" height="28" viewBox="0 0 85 28" fill="none" xmlns="http://www.w3.org/2000/svg">
<rect x="1" y="1" width="83" height="26" rx="5" stroke="#F8F8F8" stroke-width="2"/>
<path d="M20.6426 16.0137H17.3379L16.6465 18H15.1055L18.3281 9.46875H19.6582L22.8867 18H21.3398L20.6426 16.0137ZM17.7539 14.8184H20.2266L18.9902 11.2793L17.7539 14.8184ZM32.627 18H31.1445L27.3418 11.9473V18H25.8594V9.46875H27.3418L31.1562 15.5449V9.46875H32.627V18ZM37.9434 18H36.4668V9.46875H37.9434V18ZM43.6875 9.46875L46.1484 16.0078L48.6035 9.46875H50.5195V18H49.043V15.1875L49.1895 11.4258L46.6699 18H45.6094L43.0957 11.4316L43.2422 15.1875V18H41.7656V9.46875H43.6875ZM59.1582 16.0137H55.8535L55.1621 18H53.6211L56.8438 9.46875H58.1738L61.4023 18H59.8555L59.1582 16.0137ZM56.2695 14.8184H58.7422L57.5059 11.2793L56.2695 14.8184ZM65.8574 16.8164H69.7305V18H64.375V9.46875H65.8574V16.8164Z" fill="#ABABAB"/>
</svg>
