<svg width="85" height="28" viewBox="0 0 85 28" fill="none" xmlns="http://www.w3.org/2000/svg">
<rect x="1" y="1" width="83" height="26" rx="5" stroke="#F8F8F8" stroke-width="2"/>
<path d="M22.377 15.2227C22.291 16.1328 21.9551 16.8438 21.3691 17.3555C20.7832 17.8633 20.0039 18.1172 19.0312 18.1172C18.3516 18.1172 17.752 17.957 17.2324 17.6367C16.7168 17.3125 16.3184 16.8535 16.0371 16.2598C15.7559 15.666 15.6094 14.9766 15.5977 14.1914V13.3945C15.5977 12.5898 15.7402 11.8809 16.0254 11.2676C16.3105 10.6543 16.7188 10.1816 17.25 9.84961C17.7852 9.51758 18.4023 9.35156 19.1016 9.35156C20.043 9.35156 20.8008 9.60742 21.375 10.1191C21.9492 10.6309 22.2832 11.3535 22.377 12.2871H20.9004C20.8301 11.6738 20.6504 11.2324 20.3613 10.9629C20.0762 10.6895 19.6562 10.5527 19.1016 10.5527C18.457 10.5527 17.9609 10.7891 17.6133 11.2617C17.2695 11.7305 17.0938 12.4199 17.0859 13.3301V14.0859C17.0859 15.0078 17.25 15.7109 17.5781 16.1953C17.9102 16.6797 18.3945 16.9219 19.0312 16.9219C19.6133 16.9219 20.0508 16.791 20.3438 16.5293C20.6367 16.2676 20.8223 15.832 20.9004 15.2227H22.377ZM30.4824 16.0137H27.1777L26.4863 18H24.9453L28.168 9.46875H29.498L32.7266 18H31.1797L30.4824 16.0137ZM27.5938 14.8184H30.0664L28.8301 11.2793L27.5938 14.8184ZM38.834 14.7129H37.1816V18H35.6992V9.46875H38.6992C39.6836 9.46875 40.4434 9.68945 40.9785 10.1309C41.5137 10.5723 41.7812 11.2109 41.7812 12.0469C41.7812 12.6172 41.6426 13.0957 41.3652 13.4824C41.0918 13.8652 40.709 14.1602 40.2168 14.3672L42.1328 17.9238V18H40.5449L38.834 14.7129ZM37.1816 13.5234H38.7051C39.2051 13.5234 39.5957 13.3984 39.877 13.1484C40.1582 12.8945 40.2988 12.5488 40.2988 12.1113C40.2988 11.6543 40.168 11.3008 39.9062 11.0508C39.6484 10.8008 39.2617 10.6719 38.7461 10.6641H37.1816V13.5234ZM50.1738 14.1914H46.6699V16.8164H50.7656V18H45.1875V9.46875H50.7246V10.6641H46.6699V13.0195H50.1738V14.1914ZM58.959 14.1914H55.4551V16.8164H59.5508V18H53.9727V9.46875H59.5098V10.6641H55.4551V13.0195H58.959V14.1914ZM65.8926 14.7129H64.2402V18H62.7578V9.46875H65.7578C66.7422 9.46875 67.502 9.68945 68.0371 10.1309C68.5723 10.5723 68.8398 11.2109 68.8398 12.0469C68.8398 12.6172 68.7012 13.0957 68.4238 13.4824C68.1504 13.8652 67.7676 14.1602 67.2754 14.3672L69.1914 17.9238V18H67.6035L65.8926 14.7129ZM64.2402 13.5234H65.7637C66.2637 13.5234 66.6543 13.3984 66.9355 13.1484C67.2168 12.8945 67.3574 12.5488 67.3574 12.1113C67.3574 11.6543 67.2266 11.3008 66.9648 11.0508C66.707 10.8008 66.3203 10.6719 65.8047 10.6641H64.2402V13.5234Z" fill="#ABABAB"/>
</svg>
