<svg width="107" height="24" viewBox="0 0 107 24" fill="none" xmlns="http://www.w3.org/2000/svg">
<rect width="107" height="24" rx="6" fill="white"/>
<path d="M26.1475 13.6855C26.0758 14.444 25.7959 15.0365 25.3076 15.4629C24.8193 15.8861 24.1699 16.0977 23.3594 16.0977C22.793 16.0977 22.2933 15.9642 21.8604 15.6973C21.4307 15.4271 21.0986 15.0446 20.8643 14.5498C20.6299 14.055 20.5078 13.4805 20.498 12.8262V12.1621C20.498 11.4915 20.6169 10.9007 20.8545 10.3896C21.0921 9.87858 21.4323 9.4847 21.875 9.20801C22.321 8.93132 22.8353 8.79297 23.418 8.79297C24.2025 8.79297 24.834 9.00618 25.3125 9.43262C25.791 9.85905 26.0693 10.4613 26.1475 11.2393H24.917C24.8584 10.7282 24.7087 10.3604 24.4678 10.1357C24.2301 9.90788 23.8802 9.79395 23.418 9.79395C22.8809 9.79395 22.4674 9.99089 22.1777 10.3848C21.8913 10.7754 21.7448 11.3499 21.7383 12.1084V12.7383C21.7383 13.5065 21.875 14.0924 22.1484 14.4961C22.4251 14.8997 22.8288 15.1016 23.3594 15.1016C23.8444 15.1016 24.209 14.9925 24.4531 14.7744C24.6973 14.5563 24.8519 14.1934 24.917 13.6855H26.1475ZM33.4111 12.8262H30.4912V15.0137H33.9043V16H29.2559V8.89062H33.8701V9.88672H30.4912V11.8496H33.4111V12.8262ZM38.1455 15.0137H41.373V16H36.9102V8.89062H38.1455V15.0137ZM48.4756 12.8262H45.5557V15.0137H48.9688V16H44.3203V8.89062H48.9346V9.88672H45.5557V11.8496H48.4756V12.8262ZM51.9746 16V8.89062H54.4111C55.2152 8.89062 55.8271 9.05176 56.2471 9.37402C56.667 9.69629 56.877 10.1764 56.877 10.8145C56.877 11.14 56.7891 11.4329 56.6133 11.6934C56.4375 11.9538 56.1803 12.1556 55.8418 12.2988C56.2259 12.403 56.5221 12.5999 56.7305 12.8896C56.9421 13.1761 57.0479 13.5212 57.0479 13.9248C57.0479 14.5921 56.833 15.1048 56.4033 15.4629C55.9769 15.821 55.3649 16 54.5674 16H51.9746ZM53.21 12.792V15.0137H54.582C54.9694 15.0137 55.2721 14.9176 55.4902 14.7256C55.7083 14.5335 55.8174 14.2666 55.8174 13.9248C55.8174 13.1859 55.4398 12.8083 54.6846 12.792H53.21ZM53.21 11.8838H54.4209C54.805 11.8838 55.1045 11.7975 55.3193 11.625C55.5374 11.4492 55.6465 11.2018 55.6465 10.8828C55.6465 10.5312 55.5456 10.2773 55.3438 10.1211C55.1452 9.96484 54.8343 9.88672 54.4111 9.88672H53.21V11.8838ZM62.8955 13.2607H61.5186V16H60.2832V8.89062H62.7832C63.6035 8.89062 64.2367 9.07454 64.6826 9.44238C65.1286 9.81022 65.3516 10.3424 65.3516 11.0391C65.3516 11.5143 65.236 11.9131 65.0049 12.2354C64.777 12.5544 64.458 12.8001 64.0479 12.9727L65.6445 15.9365V16H64.3213L62.8955 13.2607ZM61.5186 12.2695H62.7881C63.2048 12.2695 63.5303 12.1654 63.7646 11.957C63.999 11.7454 64.1162 11.4574 64.1162 11.0928C64.1162 10.7119 64.0072 10.4173 63.7891 10.209C63.5742 10.0007 63.252 9.89323 62.8223 9.88672H61.5186V12.2695ZM69.8271 16H68.5967V8.89062H69.8271V16ZM78.3359 9.88672H76.1191V16H74.8936V9.88672H72.6963V8.89062H78.3359V9.88672ZM83.6709 12.2598L85.3066 8.89062H86.6738L84.291 13.3828V16H83.0508V13.3828L80.6631 8.89062H82.0352L83.6709 12.2598Z" fill="#333333"/>
</svg>
