<svg width="57" height="28" viewBox="0 0 57 28" fill="none" xmlns="http://www.w3.org/2000/svg">
<rect x="1" y="1" width="55" height="26" rx="5" stroke="#F8F8F8" stroke-width="2"/>
<path d="M15.8672 18V9.46875H18.3867C19.1406 9.46875 19.8086 9.63672 20.3906 9.97266C20.9766 10.3086 21.4297 10.7852 21.75 11.4023C22.0703 12.0195 22.2305 12.7266 22.2305 13.5234V13.9512C22.2305 14.7598 22.0684 15.4707 21.7441 16.084C21.4238 16.6973 20.9648 17.1699 20.3672 17.502C19.7734 17.834 19.0918 18 18.3223 18H15.8672ZM17.3496 10.6641V16.8164H18.3164C19.0938 16.8164 19.6895 16.5742 20.1035 16.0898C20.5215 15.6016 20.7344 14.9023 20.7422 13.9922V13.5176C20.7422 12.5918 20.541 11.8848 20.1387 11.3965C19.7363 10.9082 19.1523 10.6641 18.3867 10.6641H17.3496ZM30.6934 14.1914H27.1895V16.8164H31.2852V18H25.707V9.46875H31.2441V10.6641H27.1895V13.0195H30.6934V14.1914ZM37.498 16.1426L39.666 9.46875H41.2949L38.2246 18H36.7891L33.7305 9.46875H35.3535L37.498 16.1426Z" fill="#ABABAB"/>
</svg>
